<svg width="50" height="50" viewBox="0 0 50 50" fill="none" xmlns="http://www.w3.org/2000/svg">
<rect width="50" height="50" rx="3" fill="#B0413E"/>
<rect x="14" y="15" width="22" height="14" fill="#C9C9CB"/>
<path d="M12.8666 37.5416C11.2702 37.5416 9.90669 36.9696 8.77594 35.8255C7.64519 34.6815 7.05321 33.298 7 31.675C7 31.4356 7.0133 31.1961 7.03991 30.9567C7.06651 30.7172 7.10642 30.4778 7.15964 30.2383L10.512 16.829C10.8845 15.3922 11.6427 14.2282 12.7868 13.3369C13.9308 12.4456 15.2345 12 16.6978 12H32.2623C33.7256 12 35.0293 12.4456 36.1733 13.3369C37.3174 14.2282 38.0756 15.3922 38.4481 16.829L41.8005 30.2383C41.8537 30.4778 41.9002 30.7239 41.9401 30.9766C41.98 31.2294 42 31.4755 42 31.7149C42 33.3379 41.4213 34.7147 40.264 35.8455C39.1066 36.9762 37.7165 37.5416 36.0935 37.5416C34.9761 37.5416 33.9384 37.249 32.9806 36.6636C32.0228 36.0783 31.3044 35.2801 30.8255 34.2691L29.7081 31.9544C29.5751 31.6883 29.3755 31.4888 29.1095 31.3558C28.8434 31.2227 28.564 31.1562 28.2714 31.1562H20.6887C20.396 31.1562 20.1167 31.2227 19.8506 31.3558C19.5846 31.4888 19.385 31.6883 19.252 31.9544L18.1346 34.2691C17.6556 35.2801 16.9373 36.0783 15.9795 36.6636C15.0217 37.249 13.984 37.5416 12.8666 37.5416ZM26.8746 23.1745C27.3269 23.1745 27.706 23.0215 28.012 22.7155C28.3179 22.4095 28.4709 22.0304 28.4709 21.5781C28.4709 21.1258 28.3179 20.7467 28.012 20.4407C27.706 20.1347 27.3269 19.9818 26.8746 19.9818C26.4223 19.9818 26.0431 20.1347 25.7372 20.4407C25.4312 20.7467 25.2782 21.1258 25.2782 21.5781C25.2782 22.0304 25.4312 22.4095 25.7372 22.7155C26.0431 23.0215 26.4223 23.1745 26.8746 23.1745ZM30.0673 19.9818C30.5196 19.9818 30.8987 19.8288 31.2047 19.5228C31.5106 19.2168 31.6636 18.8377 31.6636 18.3854C31.6636 17.9331 31.5106 17.554 31.2047 17.248C30.8987 16.942 30.5196 16.7891 30.0673 16.7891C29.615 16.7891 29.2358 16.942 28.9299 17.248C28.6239 17.554 28.4709 17.9331 28.4709 18.3854C28.4709 18.8377 28.6239 19.2168 28.9299 19.5228C29.2358 19.8288 29.615 19.9818 30.0673 19.9818ZM30.0673 26.3672C30.5196 26.3672 30.8987 26.2142 31.2047 25.9082C31.5106 25.6022 31.6636 25.2231 31.6636 24.7708C31.6636 24.3185 31.5106 23.9394 31.2047 23.6334C30.8987 23.3274 30.5196 23.1745 30.0673 23.1745C29.615 23.1745 29.2358 23.3274 28.9299 23.6334C28.6239 23.9394 28.4709 24.3185 28.4709 24.7708C28.4709 25.2231 28.6239 25.6022 28.9299 25.9082C29.2358 26.2142 29.615 26.3672 30.0673 26.3672ZM33.26 23.1745C33.7123 23.1745 34.0914 23.0215 34.3974 22.7155C34.7033 22.4095 34.8563 22.0304 34.8563 21.5781C34.8563 21.1258 34.7033 20.7467 34.3974 20.4407C34.0914 20.1347 33.7123 19.9818 33.26 19.9818C32.8077 19.9818 32.4285 20.1347 32.1226 20.4407C31.8166 20.7467 31.6636 21.1258 31.6636 21.5781C31.6636 22.0304 31.8166 22.4095 32.1226 22.7155C32.4285 23.0215 32.8077 23.1745 33.26 23.1745ZM18.8928 25.569C19.2387 25.569 19.5247 25.4559 19.7509 25.2298C19.977 25.0036 20.0901 24.7176 20.0901 24.3717V22.7754H21.6864C22.0323 22.7754 22.3183 22.6623 22.5445 22.4361C22.7706 22.21 22.8837 21.924 22.8837 21.5781C22.8837 21.2322 22.7706 20.9462 22.5445 20.7201C22.3183 20.4939 22.0323 20.3808 21.6864 20.3808H20.0901V18.7845C20.0901 18.4386 19.977 18.1526 19.7509 17.9265C19.5247 17.7003 19.2387 17.5872 18.8928 17.5872C18.5469 17.5872 18.2609 17.7003 18.0348 17.9265C17.8086 18.1526 17.6956 18.4386 17.6956 18.7845V20.3808H16.0992C15.7533 20.3808 15.4673 20.4939 15.2412 20.7201C15.015 20.9462 14.9019 21.2322 14.9019 21.5781C14.9019 21.924 15.015 22.21 15.2412 22.4361C15.4673 22.6623 15.7533 22.7754 16.0992 22.7754H17.6956V24.3717C17.6956 24.7176 17.8086 25.0036 18.0348 25.2298C18.2609 25.4559 18.5469 25.569 18.8928 25.569Z" fill="#2589BD"/>
</svg>
